<?xml version="1.0" encoding="UTF-8"?>
<svg width="512" height="512" viewBox="0 0 512 512" fill="none" xmlns="http://www.w3.org/2000/svg">
    <rect width="512" height="512" fill="#2196F3"/>
    <path d="M256 128C327 128 384 185 384 256C384 327 327 384 256 384C185 384 128 327 128 256C128 185 185 128 256 128ZM256 341.6C293.7 341.6 324.3 316 334.1 280.8H277.9V319.2H374.1V223H335.7C325.7 275.6 280.5 313.3 226.2 313.3C165.6 313.3 116 263.9 116 203.3C116 142.7 165.4 93.3 226 93.3C258.7 93.3 287.3 107.1 307.9 129.1L336.5 100.5C315.9 78.5 286.5 64 256 64C158.8 64 80 142.8 80 240C80 337.2 158.8 416 256 416C353.2 416 432 337.2 432 240H400C400 319.5 335.5 384 256 384C176.5 384 112 319.5 112 240C112 160.5 176.5 96 256 96C301.1 96 342.4 115.2 370.9 145.1L342.3 173.7C329.3 158.6 312.7 148 294.2 142.6V180.6H256V96H384V128H256V128Z" fill="white"/>
</svg>
